<?xml version="1.0" encoding="utf-8"?>
<!-- Generator: Adobe Illustrator 22.0.2, SVG Export Plug-In . SVG Version: 6.00 Build 0)  -->
<svg version="1.1" id="图层_1" xmlns="http://www.w3.org/2000/svg" xmlns:xlink="http://www.w3.org/1999/xlink" x="0px" y="0px"
	 viewBox="0 0 24 120" style="enable-background:new 0 0 24 120;" xml:space="preserve">
<g>
	<g>
		<path d="M18,26.3c0-0.1,0-0.1,0-0.2c-0.3-2.3-1.8-4.2-3.9-5c1.2-0.8,2-2.1,2-3.7c0-2.5-2-4.5-4.6-4.5c-2.5,0-4.6,2-4.6,4.5
			c0,1.5,0.8,2.9,2,3.7c-2.1,0.9-3.6,2.7-3.9,5c0,0.1,0,0.1,0,0.2l0,0.1C5,26.7,5.3,27,5.7,27c0.4,0,0.7-0.3,0.7-0.6v0h0
			c0.3-2.4,2.4-4.3,4.9-4.5c0.1,0,0.2,0,0.3,0c0.1,0,0.2,0,0.3,0c2.5,0.1,4.6,2,4.9,4.5h0v0c0,0.4,0.3,0.6,0.7,0.6S18,26.7,18,26.3
			L18,26.3z M11.5,20.6c-1.8,0-3.3-1.4-3.3-3.2c0-1.8,1.5-3.2,3.3-3.2c1.8,0,3.3,1.4,3.3,3.2C14.8,19.2,13.3,20.6,11.5,20.6
			L11.5,20.6z M11.5,20.6"/>
	</g>
</g>
<g>
	<g>
		<path d="M15.9,98.3v-2.6c0-2.1-1.7-3.8-3.9-3.8c-2.2,0-3.9,1.7-3.9,3.8v2.6H6v8.7h12v-8.7H15.9z M8.7,95.8c0-1.7,1.5-3.2,3.3-3.2
			c1.8,0,3.3,1.4,3.3,3.2v2.6H8.7V95.8z M17.4,106.4H6.6v-7.5h10.8V106.4z"/>
	</g>
	<path d="M12,100.7c-0.7,0-1.2,0.5-1.2,1.2c0,0.5,0.4,1,0.9,1.1v1.2h0.6v-1.2c0.5-0.1,0.9-0.6,0.9-1.1
		C13.2,101.2,12.7,100.7,12,100.7z M12,102.4c-0.3,0-0.6-0.3-0.6-0.6s0.3-0.6,0.6-0.6c0.3,0,0.6,0.3,0.6,0.6S12.3,102.4,12,102.4z"
		/>
</g>
<path d="M5,55v10h14V55H5z M12,60.5l-5.9-4.8h11.9L12,60.5z M5.6,64.4V56l4.2,3.4l-2.5,3l0.1,0.1l2.9-2.7l1.8,1.4l1.8-1.4l2.9,2.7
	l0.1-0.1l-2.5-3l4.2-3.4v8.4H5.6z"/>
</svg>
