<?xml version="1.0" encoding="utf-8"?>
<!-- Generator: Adobe Illustrator 21.0.0, SVG Export Plug-In . SVG Version: 6.00 Build 0)  -->
<svg version="1.1" id="图层_1" xmlns="http://www.w3.org/2000/svg" xmlns:xlink="http://www.w3.org/1999/xlink" x="0px" y="0px"
	 viewBox="0 0 256 64" style="enable-background:new 0 0 256 64;" xml:space="preserve">
<style type="text/css">
	.st0{fill:#00BCD4;}
</style>
<path class="st0" d="M242.9,54h-2.5L231,33.7c-1-2.1-1.5-3.5-1.8-4.3h-0.1c0,0.4-0.1,1-0.2,1.5c-0.1,0.6-1.4,8.2-4,23h-2.8l5.1-28.9
	h2.7l10.6,22.9l0.6,1.4h0.1c0.1-0.8,0.2-1.8,0.4-2.8c0.2-1,1.4-8.2,3.7-21.4h2.8L242.9,54z M212.8,28.4c-1.3-0.3-2.6-0.5-3.9-0.5
	c-2.5,0-4.8,0.6-6.8,1.7c-2,1.1-3.6,2.7-4.7,4.7c-1.1,2-1.7,4.3-1.7,6.8c0,3.1,0.9,5.5,2.6,7.3c1.7,1.8,4.1,2.7,7.2,2.7
	c2.3,0,4.5-0.4,6.5-1.3l1.8-8h-7.2l0.6-2.9h10.6l-2.8,12.8c-3.1,1.5-6.4,2.2-9.7,2.2c-4.1,0-7.3-1.1-9.7-3.4
	c-2.4-2.3-3.6-5.3-3.6-9.1c0-3.1,0.7-5.9,2.2-8.4c1.5-2.5,3.5-4.5,6.1-5.9c2.6-1.4,5.6-2.1,8.8-2.1c3.1,0,6,0.6,8.7,1.8l-0.7,3.1
	C215.6,29.2,214.1,28.7,212.8,28.4z M178,54l6.2-28.9h3.5L181.6,54H178z M167.9,27.9c-1.6,0-2.9,0.4-3.9,1.3c-1,0.9-1.4,2-1.4,3.3
	c0,1.1,0.3,2.1,0.9,2.9s1.7,1.8,3.3,3c1.8,1.3,3.1,2.6,3.9,3.8c0.8,1.2,1.2,2.5,1.2,3.9c0,2.3-0.8,4.2-2.3,5.7
	c-1.5,1.4-3.6,2.1-6.2,2.1c-1.4,0-2.6-0.2-3.8-0.6c-1.2-0.4-2.2-0.8-3-1.3l0.4-3.3c2.1,1.5,4.2,2.3,6.4,2.3c1.9,0,3.2-0.4,4.2-1.3
	c0.9-0.8,1.4-2,1.4-3.4c0-1-0.3-1.9-0.8-2.7c-0.6-0.8-1.8-1.9-3.6-3.3c-1.8-1.4-3.1-2.6-3.8-3.8c-0.7-1.2-1.1-2.5-1.1-3.9
	c0-2.2,0.8-4.1,2.3-5.6c1.6-1.5,3.6-2.2,6.1-2.2c1.9,0,3.8,0.4,5.7,1.3l-0.5,3.1C171.6,28.4,169.8,27.9,167.9,27.9z M142.8,28.1
	l-2,9.8h11.1l-0.6,3h-11L138,51h12.7l-0.6,3h-16.2l6.1-28.9h15.4l-0.6,3H142.8z M118.8,51.2c-3.5,1.9-7.6,2.8-12.2,2.8H95.2
	l8.2-38.6h9.7c5.3,0,9.3,1.4,12.2,4.1s4.3,6.6,4.3,11.5c0,4.6-0.9,8.6-2.8,12.1C125,46.6,122.3,49.3,118.8,51.2z M112.2,18.6h-6.1
	l-6.8,32.2h7.4c5.9,0,10.6-1.7,14-5.2c3.4-3.5,5.1-8.2,5.1-14.3C126,22.9,121.4,18.6,112.2,18.6z M86,54c-1.5,0-2.7-1.2-2.7-2.7
	c0-1.5,1.2-2.7,2.7-2.7c1.5,0,2.7,1.2,2.7,2.7C88.7,52.8,87.5,54,86,54z M73.4,51.1C71.4,53,68.5,54,65,54c-3,0-5.4-0.8-7.1-2.3
	c-1.7-1.5-2.5-3.8-2.5-6.8c0-1.1,0.1-2.3,0.4-3.7l3.3-16.2h3.3l-3.2,15.8c-0.3,1.3-0.4,2.5-0.4,3.5c0,2.3,0.5,3.9,1.6,5
	c1,1.1,2.6,1.6,4.8,1.6c2.6,0,4.6-0.7,6-2.2c1.5-1.5,2.6-3.9,3.3-7.4l3.3-16.4h3.3l-3.4,16.6C76.9,46.1,75.4,49.2,73.4,51.1z
	 M25.6,36.5L8,54V38l9.4-9.3L8,19.5V9h5.3l40.2,45h-10L25.6,36.5z M29.4,16.9l8-7.9h16.2L36.5,25.9L29.4,16.9z"/>
</svg>
