<?xml version="1.0" encoding="utf-8"?><svg version="1.1" id="xuui" xmlns="http://www.w3.org/2000/svg" xmlns:xlink="http://www.w3.org/1999/xlink" x="0px" y="0px" viewBox="0 0 192 48" style="enable-background:new 0 0 192 48;" xml:space="preserve"><style type="text/css">.st0{fill:#2376B7;}.st1{opacity:0.5;fill:#2376B7;enable-background:new;}</style><path class="st0" d="M187.8,39.9h-2l-7.5-16.2c-0.8-1.7-1.2-2.8-1.4-3.4h-0.1c0,0.3-0.1,0.8-0.2,1.2c-0.1,0.5-1.1,6.5-3.2,18.4h-2.2 l4.1-23.1h2.2l8.5,18.3l0.5,1.1h0.1c0.1-0.6,0.2-1.4,0.3-2.2s1.1-6.5,3-17.1h2.2L187.8,39.9z M163.8,19.5c-1-0.2-2.1-0.4-3.1-0.4 c-2,0-3.8,0.5-5.4,1.4c-1.6,0.9-2.9,2.2-3.8,3.8c-0.9,1.6-1.4,3.4-1.4,5.4c0,2.5,0.7,4.4,2.1,5.8c1.4,1.4,3.3,2.2,5.8,2.2 c1.8,0,3.6-0.3,5.2-1l1.4-6.4h-5.8l0.5-2.3h8.5l-2.2,10.2c-2.5,1.2-5.1,1.8-7.8,1.8c-3.3,0-5.8-0.9-7.8-2.7 c-1.9-1.8-2.9-4.2-2.9-7.3c0-2.5,0.6-4.7,1.8-6.7c1.2-2,2.8-3.6,4.9-4.7c2.1-1.1,4.5-1.7,7-1.7c2.5,0,4.8,0.5,7,1.4l-0.6,2.5 C166,20.1,164.8,19.7,163.8,19.5z M135.9,39.9l5-23.1h2.8l-4.9,23.1H135.9z M127.9,19.1c-1.3,0-2.3,0.3-3.1,1 c-0.8,0.7-1.1,1.6-1.1,2.6c0,0.9,0.2,1.7,0.7,2.3c0.5,0.6,1.4,1.4,2.6,2.4c1.4,1,2.5,2.1,3.1,3c0.6,1,1,2,1,3.1 c0,1.8-0.6,3.4-1.8,4.5c-1.2,1.1-2.9,1.7-5,1.7c-1.1,0-2.1-0.2-3-0.5c-1-0.3-1.8-0.6-2.4-1l0.3-2.6c1.7,1.2,3.4,1.8,5.1,1.8 c1.5,0,2.6-0.3,3.4-1c0.7-0.6,1.1-1.6,1.1-2.7c0-0.8-0.2-1.5-0.6-2.2c-0.5-0.6-1.4-1.5-2.9-2.6c-1.4-1.1-2.5-2.1-3-3 c-0.6-1-0.9-2-0.9-3.1c0-1.8,0.6-3.3,1.8-4.5c1.3-1.2,2.9-1.8,4.9-1.8c1.5,0,3,0.3,4.6,1l-0.4,2.5C130.8,19.5,129.4,19.1,127.9,19.1 z M107.8,19.2l-1.6,7.8h8.9l-0.5,2.4h-8.8l-1.8,8.1h10.2l-0.5,2.4h-13l4.9-23.1h12.3l-0.5,2.4H107.8z M88.6,37.7 c-2.8,1.5-6.1,2.2-9.8,2.2h-9.1l6.6-30.8H84c4.2,0,7.4,1.1,9.8,3.3s3.4,5.3,3.4,9.2c0,3.7-0.7,6.9-2.2,9.7 C93.6,34,91.4,36.2,88.6,37.7z M83.3,11.7h-4.9L73,37.4h5.9c4.7,0,8.5-1.4,11.2-4.2c2.7-2.8,4.1-6.5,4.1-11.4 C94.4,15.1,90.7,11.7,83.3,11.7z M52.3,37.6c-1.6,1.5-3.9,2.3-6.7,2.3c-2.4,0-4.3-0.6-5.7-1.8s-2-3-2-5.4c0-0.9,0.1-1.8,0.3-3 l2.6-12.9h2.6l-2.6,12.6c-0.2,1-0.3,2-0.3,2.8c0,1.8,0.4,3.1,1.3,4c0.8,0.9,2.1,1.3,3.8,1.3c2.1,0,3.7-0.6,4.8-1.8 c1.2-1.2,2.1-3.1,2.6-5.9l2.6-13.1h2.6l-2.7,13.3C55.1,33.6,53.9,36.1,52.3,37.6z M14.1,26L0,39.9V27.1l7.5-7.4L0,12.4V4h4.2 l32.1,35.9h-8L14.1,26z"/><path class="st1" d="M62.5,40c-1.2,0-2.2-1-2.2-2.2s1-2.2,2.2-2.2c1.2,0,2.2,1,2.2,2.2S63.7,40,62.5,40z M17.2,10.3L23.6,4h13 L22.8,17.5L17.2,10.3z"/></svg>